<svg xmlns="http://www.w3.org/2000/svg" aria-hidden="true" style="position:absolute;width:0;height:0;overflow:hidden"><defs><symbol id="chevron-down" viewBox="0 0 32 32"><path fill="none" stroke="#fff" stroke-linecap="round" stroke-linejoin="round" stroke-width="3.2" d="m8 12 8 8 8-8" style="stroke:var(--color1, #fff)"/></symbol><symbol id="heart-active" viewBox="0 0 32 32"><path fill="#3470ff" stroke="#3470ff" stroke-linecap="round" stroke-linejoin="round" stroke-width="2.667" d="M27.787 6.148C26.46 4.82 24.626 3.999 22.6 3.999s-3.859.821-5.187 2.149L16 7.561l-1.413-1.415A7.336 7.336 0 0 0 4.213 16.522L16 28.307 27.787 16.52c1.327-1.328 2.148-3.161 2.148-5.187s-.821-3.859-2.148-5.187h0z" style="fill:var(--color2, #3470ff);stroke:var(--color2, #3470ff)"/></symbol><symbol id="heart-normal" viewBox="0 0 32 32"><path fill="none" stroke="#fff" stroke-linecap="round" stroke-linejoin="round" stroke-width="2.667" d="M27.787 6.148C26.46 4.82 24.626 3.999 22.6 3.999s-3.859.821-5.187 2.149L16 7.561l-1.413-1.415A7.336 7.336 0 0 0 4.213 16.522L16 28.307 27.787 16.52c1.327-1.328 2.148-3.161 2.148-5.187s-.821-3.859-2.148-5.187h0z" style="stroke:var(--color1, #fff)"/></symbol><symbol id="x" viewBox="0 0 32 32"><path stroke-linecap="round" stroke-linejoin="round" stroke-width="2.4" d="M24 8 8 24M8 8l16 16"/></symbol></defs></svg>